M48
; DRILL file {KiCad 7.0.10} date sob, 11 maj 2024, 14:05:19
; FORMAT={-:-/ absolute / inch / decimal}
; #@! TF.CreationDate,2024-05-11T14:05:19+02:00
; #@! TF.GenerationSoftware,Kicad,Pcbnew,7.0.10
; #@! TF.FileFunction,Plated,1,2,PTH
FMAT,2
INCH
; #@! TA.AperFunction,Plated,PTH,ViaDrill
T1C0.0157
; #@! TA.AperFunction,Plated,PTH,ViaDrill
T2C0.0236
; #@! TA.AperFunction,Plated,PTH,ViaDrill
T3C0.0315
; #@! TA.AperFunction,Plated,PTH,ComponentDrill
T4C0.0315
; #@! TA.AperFunction,Plated,PTH,ComponentDrill
T5C0.0374
; #@! TA.AperFunction,Plated,PTH,ComponentDrill
T6C0.0512
; #@! TA.AperFunction,Plated,PTH,ViaDrill
T7C0.0591
; #@! TA.AperFunction,Plated,PTH,ComponentDrill
T8C0.0591
; #@! TA.AperFunction,Plated,PTH,ComponentDrill
T9C0.0598
; #@! TA.AperFunction,Plated,PTH,ComponentDrill
T10C0.0669
; #@! TA.AperFunction,Plated,PTH,ViaDrill
T11C0.1614
%
G90
G05
T1
X3.0256Y-2.9508
X3.0886Y-2.8957
X3.1634Y-2.8346
X3.1752Y-3.3642
X3.1752Y-3.4409
X3.316Y-5.058
X3.366Y-5.021
X4.1428Y-5.2556
X4.252Y-2.8583
X4.6358Y-4.8248
X4.6574Y-4.9469
X4.7067Y-4.7421
X4.7323Y-4.8228
X4.7657Y-5.2874
X4.7677Y-4.7421
X4.7677Y-5.2323
X4.7933Y-5.0472
X4.7933Y-5.0906
X4.8209Y-5.2323
X4.8209Y-5.2894
X4.8602Y-4.8228
X4.9232Y-4.9469
X5.5256Y-3.7028
X5.5984Y-3.7028
X5.6791Y-3.7028
X5.7657Y-3.7047
X5.8386Y-3.7598
X5.8799Y-3.8228
X5.9193Y-3.9035
T2
X2.6043Y-2.8445
X2.6063Y-2.9236
X2.6063Y-3.0303
X2.6063Y-3.137
X2.6063Y-3.2437
X2.6063Y-3.3504
X2.6063Y-3.4571
X2.6063Y-3.5638
X2.6063Y-3.6705
X2.6063Y-3.7772
X2.6063Y-3.8839
X2.6063Y-3.9906
X2.6063Y-4.0972
X2.6063Y-4.2039
X2.6063Y-4.3106
X2.6063Y-4.4173
X2.6063Y-4.524
X2.6063Y-4.6307
X2.6063Y-4.7374
X2.6063Y-4.8441
X2.6063Y-4.9508
X2.6328Y-2.6785
X2.6811Y-5.0217
X2.7461Y-5.0906
X2.7697Y-2.7343
X2.8228Y-4.8858
X2.85Y-4.551
X2.9213Y-4.9941
X2.9646Y-3.75
X2.9843Y-3.4665
X2.9843Y-3.5197
X2.9843Y-3.5748
X2.9941Y-4.2362
X2.9941Y-4.3012
X2.9961Y-4.3819
X3.0276Y-5.4094
X3.0295Y-3.75
X3.0315Y-3.9606
X3.0335Y-3.9016
X3.034Y-4.571
X3.0433Y-2.4213
X3.051Y-4.942
X3.09Y-4.383
X3.1Y-4.818
X3.1011Y-5.4665
X3.1181Y-3.7317
X3.1181Y-3.8386
X3.122Y-2.3622
X3.154Y-4.703
X3.177Y-4.941
X3.1772Y-3.5191
X3.1772Y-3.626
X3.1772Y-3.9467
X3.1772Y-4.0537
X3.1772Y-4.1606
X3.1772Y-4.2675
X3.1772Y-4.3744
X3.178Y-4.439
X3.1877Y-5.0114
X3.2003Y-2.311
X3.208Y-5.4665
X3.2221Y-2.7736
X3.2221Y-3.2283
X3.228Y-4.818
X3.264Y-4.703
X3.289Y-4.438
X3.3065Y-4.9209
X3.3072Y-2.311
X3.3149Y-5.4665
X3.3181Y-5.1933
X3.329Y-2.7736
X3.329Y-3.2283
X3.3524Y-4.2205
X3.3563Y-3.8701
X3.3583Y-4.0394
X3.367Y-4.703
X3.368Y-4.439
X3.4142Y-2.311
X3.4218Y-5.4665
X3.4359Y-2.7736
X3.4359Y-3.2283
X3.475Y-4.569
X3.5211Y-2.311
X3.5287Y-5.4665
X3.538Y-4.737
X3.538Y-4.822
X3.5394Y-5.0374
X3.5428Y-2.7736
X3.5428Y-3.2283
X3.5448Y-4.9696
X3.582Y-4.567
X3.5827Y-4.311
X3.5827Y-4.3957
X3.586Y-4.479
X3.5906Y-5.0374
X3.6024Y-5.1024
X3.628Y-2.311
X3.6356Y-5.4665
X3.6497Y-2.7736
X3.6497Y-3.2283
X3.7349Y-2.311
X3.74Y-4.675
X3.7426Y-5.4665
X3.7566Y-2.7736
X3.7566Y-3.2283
X3.7579Y-3.124
X3.7598Y-2.937
X3.7598Y-3.0276
X3.7618Y-2.8504
X3.7894Y-4.3858
X3.796Y-4.607
X3.8418Y-2.311
X3.8465Y-5.2244
X3.8495Y-5.4665
X3.851Y-4.538
X3.852Y-4.451
X3.8524Y-5.3189
X3.8636Y-2.7736
X3.8636Y-3.2283
X3.8717Y-4.9685
X3.9193Y-5.1772
X3.9429Y-3.8602
X3.9429Y-4.0335
X3.9449Y-4.2185
X3.9487Y-2.311
X3.9564Y-5.4665
X3.9705Y-2.7736
X3.9705Y-3.2283
X3.9866Y-4.9673
X4.002Y-4.3642
X4.0059Y-3.5118
X4.0557Y-2.311
X4.0633Y-5.4665
X4.065Y-2.5236
X4.0719Y-5.0157
X4.0774Y-2.7736
X4.0774Y-3.2283
X4.122Y-2.5689
X4.1299Y-3.8132
X4.1299Y-3.9201
X4.1299Y-4.0271
X4.1299Y-4.134
X4.1299Y-4.2409
X4.1299Y-4.3478
X4.1299Y-4.4547
X4.1476Y-3.5827
X4.1567Y-4.9661
X4.1594Y-5.1811
X4.1626Y-2.311
X4.1702Y-5.4665
X4.1772Y-3.2283
X4.2008Y-2.9665
X4.2421Y-3.2815
X4.2421Y-4.8019
X4.2421Y-4.9088
X4.2421Y-5.0157
X4.2546Y-3.5827
X4.2638Y-3.0295
X4.2695Y-2.311
X4.2771Y-5.4665
X4.3091Y-3.3366
X4.313Y-4.7488
X4.313Y-4.8557
X4.313Y-4.9626
X4.3248Y-3.0866
X4.3484Y-2.6043
X4.3579Y-2.8563
X4.3615Y-3.5827
X4.3764Y-2.311
X4.3841Y-5.4665
X4.4012Y-3.3504
X4.4016Y-4.7776
X4.4025Y-3.1535
X4.4091Y-2.9508
X4.4587Y-2.6043
X4.4587Y-4.7205
X4.4648Y-2.8563
X4.4684Y-3.5827
X4.4685Y-3.6988
X4.4833Y-2.311
X4.4948Y-5.4646
X4.5081Y-3.3504
X4.5095Y-3.1535
X4.516Y-2.9508
X4.5217Y-4.6535
X4.5717Y-2.8563
X4.5768Y-2.6043
X4.5902Y-2.311
X4.5906Y-4.3642
X4.5906Y-4.4803
X4.5906Y-4.5886
X4.5979Y-5.4665
X4.615Y-3.3504
X4.6164Y-3.1535
X4.6229Y-2.9508
X4.6786Y-2.8563
X4.6909Y-2.6043
X4.6972Y-2.311
X4.7087Y-5.4646
X4.7219Y-3.3504
X4.7233Y-3.1535
X4.7298Y-2.9508
X4.7855Y-2.8563
X4.8041Y-2.311
X4.8117Y-5.4665
X4.8289Y-3.3504
X4.8302Y-3.1535
X4.8367Y-2.9508
X4.874Y-2.5827
X4.8858Y-4.3642
X4.8878Y-4.4626
X4.8925Y-2.8563
X4.911Y-2.311
X4.9186Y-5.4665
X4.9358Y-3.3504
X4.9371Y-3.1535
X4.9436Y-2.9508
X4.9685Y-2.4941
X4.9724Y-4.565
X4.9744Y-4.6594
X4.9961Y-3.4865
X4.9961Y-3.5934
X4.9961Y-3.7003
X4.9994Y-2.8563
X5.0179Y-2.311
X5.0217Y-4.7421
X5.0256Y-5.4665
X5.0427Y-3.3504
X5.044Y-3.1535
X5.0506Y-2.9508
X5.0965Y-4.811
X5.1063Y-2.8563
X5.122Y-4.563
X5.122Y-4.6654
X5.1248Y-2.311
X5.1325Y-5.4665
X5.1496Y-3.3504
X5.151Y-3.1535
X5.1575Y-2.9508
X5.2132Y-2.8563
X5.2317Y-2.311
X5.2394Y-5.4665
X5.2565Y-3.3504
X5.2579Y-3.1535
X5.2644Y-2.9508
X5.2657Y-3.4301
X5.2657Y-3.537
X5.2657Y-3.6439
X5.2657Y-3.7508
X5.2657Y-3.8578
X5.2657Y-3.9647
X5.2657Y-4.0716
X5.2657Y-4.1785
X5.2657Y-4.2854
X5.2657Y-4.3826
X5.2657Y-4.4895
X5.2657Y-4.5965
X5.2657Y-4.6877
X5.2657Y-4.7947
X5.2756Y-4.8819
X5.3248Y-3.189
X5.3382Y-2.8839
X5.3387Y-2.311
X5.3463Y-5.4665
X5.3701Y-3.2539
X5.3701Y-3.3609
X5.3701Y-3.4678
X5.3701Y-3.5747
X5.3701Y-3.6816
X5.3701Y-3.7885
X5.3701Y-3.8954
X5.3701Y-4.0024
X5.3701Y-4.3242
X5.3701Y-4.4311
X5.3701Y-4.538
X5.3701Y-4.6449
X5.3701Y-4.7519
X5.3701Y-4.8588
X5.3701Y-4.9657
X5.3701Y-5.0726
X5.3701Y-5.1795
X5.3776Y-4.189
X5.4301Y-4.1102
X5.4451Y-2.8839
X5.4456Y-2.311
X5.4532Y-5.4665
X5.4845Y-4.189
X5.4898Y-4.0098
X5.5331Y-2.7874
X5.537Y-4.1102
X5.552Y-2.8839
X5.5525Y-2.311
X5.5601Y-5.4665
X5.5914Y-4.189
X5.5967Y-4.0098
X5.64Y-2.7874
X5.6439Y-4.1102
X5.6589Y-2.8839
X5.6594Y-2.311
X5.6671Y-5.4665
X5.6983Y-4.189
X5.7036Y-4.0098
X5.7469Y-2.7874
X5.7508Y-4.1102
X5.7659Y-2.8839
X5.7663Y-2.311
X5.774Y-5.4665
X5.8052Y-4.189
X5.8105Y-4.0098
X5.8538Y-2.7874
X5.8578Y-4.1102
X5.8728Y-2.8839
X5.8732Y-2.311
X5.8809Y-5.4665
X5.9122Y-4.189
X5.9174Y-4.0098
X5.9607Y-2.7874
X5.9647Y-4.1102
X5.9797Y-2.8839
X5.9802Y-2.311
X5.9878Y-5.4665
X6.0039Y-2.9429
X6.0059Y-3.0138
X6.0059Y-3.0846
X6.0191Y-4.189
X6.0244Y-4.0098
X6.0677Y-2.7874
X6.0716Y-4.1102
X6.0807Y-3.0472
X6.0866Y-2.8839
X6.0871Y-2.311
X6.0947Y-5.4665
X6.1043Y-3.4626
X6.126Y-4.189
X6.1313Y-4.0098
X6.1476Y-2.3602
X6.1614Y-3.0472
X6.1713Y-3.4665
X6.1746Y-2.7874
X6.1785Y-4.1102
X6.1935Y-2.8839
X6.1988Y-3.5571
X6.2329Y-4.189
X6.2343Y-4.0079
X6.2736Y-4.1122
X6.2776Y-2.8839
X6.2815Y-2.7874
X6.3622Y-2.8839
X6.3805Y-4.1122
X6.3884Y-2.7874
X6.4055Y-2.6457
X6.4587Y-2.7441
X6.4587Y-2.8508
X6.4587Y-2.9575
X6.4587Y-3.0642
X6.4587Y-3.1709
X6.4587Y-3.2776
X6.4587Y-3.3843
X6.4587Y-3.4909
X6.4587Y-3.5976
X6.4587Y-3.7043
X6.4587Y-3.811
X6.4587Y-3.9177
X6.4587Y-4.0244
X6.4587Y-4.1311
X6.4587Y-4.2378
X6.4587Y-4.3445
X6.4587Y-4.4512
X6.4587Y-4.5579
X6.4587Y-4.6646
X6.4587Y-4.7713
X6.4587Y-4.878
X6.4587Y-4.9846
X6.4587Y-5.0913
T3
X2.67Y-2.775
X2.72Y-2.825
X2.907Y-4.261
X3.824Y-4.817
T4
X3.0707Y-5.1219
X3.1707Y-5.1219
X3.2707Y-5.1219
X3.2972Y-3.3661
X4.0059Y-3.3661
X4.3406Y-3.6909
X4.3406Y-4.3996
T5
X2.7795Y-4.1083
X2.7795Y-4.2067
X2.7795Y-4.3051
X2.7795Y-4.4035
X2.7795Y-4.502
X2.7795Y-4.6004
X2.7795Y-4.6988
X2.7795Y-4.7972
T6
X4.439Y-2.4537
X4.439Y-3.0544
X4.439Y-3.2529
X4.439Y-3.4513
X4.7343Y-2.4537
X4.7343Y-3.0544
X4.7343Y-3.2529
X4.7343Y-3.4513
X5.5709Y-2.4524
X5.5709Y-3.0531
X5.5709Y-3.2516
X5.5709Y-3.45
X5.8661Y-2.4524
X5.8661Y-3.0531
X5.8661Y-3.2516
X5.8661Y-3.45
T7
X6.3386Y-3.0315
X6.3386Y-3.4724
X6.3386Y-3.561
X6.3386Y-4.0157
T8
X3.2776Y-3.7598
X4.005Y-3.0
X4.0256Y-3.7598
X4.4476Y-5.206
X4.7343Y-3.6713
X4.7343Y-4.4193
X5.1374Y-5.206
X6.0748Y-3.25
X6.0748Y-3.7795
T9
X2.88Y-2.99
X2.88Y-3.19
T10
X3.905Y-2.9
X3.905Y-3.1
X4.105Y-2.9
X4.105Y-3.1
X4.3476Y-5.106
X4.3476Y-5.306
X4.5476Y-5.106
X4.5476Y-5.306
X5.0374Y-5.106
X5.0374Y-5.306
X5.2374Y-5.106
X5.2374Y-5.306
T11
X2.7953Y-2.5197
X2.7953Y-5.2756
X6.2598Y-2.5197
X6.2598Y-5.2756
M30
