%TF.GenerationSoftware,KiCad,Pcbnew,7.0.10*%
%TF.CreationDate,2024-05-11T14:05:22+02:00*%
%TF.ProjectId,TXRX_relay_board,54585258-5f72-4656-9c61-795f626f6172,rev?*%
%TF.SameCoordinates,Original*%
%TF.FileFunction,Soldermask,Top*%
%TF.FilePolarity,Negative*%
%FSLAX46Y46*%
G04 Gerber Fmt 4.6, Leading zero omitted, Abs format (unit mm)*
G04 Created by KiCad (PCBNEW 7.0.10) date 2024-05-11 14:05:22*
%MOMM*%
%LPD*%
G01*
G04 APERTURE LIST*
G04 Aperture macros list*
%AMRoundRect*
0 Rectangle with rounded corners*
0 $1 Rounding radius*
0 $2 $3 $4 $5 $6 $7 $8 $9 X,Y pos of 4 corners*
0 Add a 4 corners polygon primitive as box body*
4,1,4,$2,$3,$4,$5,$6,$7,$8,$9,$2,$3,0*
0 Add four circle primitives for the rounded corners*
1,1,$1+$1,$2,$3*
1,1,$1+$1,$4,$5*
1,1,$1+$1,$6,$7*
1,1,$1+$1,$8,$9*
0 Add four rect primitives between the rounded corners*
20,1,$1+$1,$2,$3,$4,$5,0*
20,1,$1+$1,$4,$5,$6,$7,0*
20,1,$1+$1,$6,$7,$8,$9,0*
20,1,$1+$1,$8,$9,$2,$3,0*%
G04 Aperture macros list end*
%ADD10C,4.175000*%
%ADD11C,1.260678*%
%ADD12C,0.150000*%
%ADD13RoundRect,0.237500X0.250000X0.237500X-0.250000X0.237500X-0.250000X-0.237500X0.250000X-0.237500X0*%
%ADD14RoundRect,0.237500X-0.250000X-0.237500X0.250000X-0.237500X0.250000X0.237500X-0.250000X0.237500X0*%
%ADD15RoundRect,0.237500X0.287500X0.237500X-0.287500X0.237500X-0.287500X-0.237500X0.287500X-0.237500X0*%
%ADD16RoundRect,0.112500X0.112500X-0.187500X0.112500X0.187500X-0.112500X0.187500X-0.112500X-0.187500X0*%
%ADD17RoundRect,0.112500X-0.112500X0.187500X-0.112500X-0.187500X0.112500X-0.187500X0.112500X0.187500X0*%
%ADD18RoundRect,0.237500X-0.237500X0.300000X-0.237500X-0.300000X0.237500X-0.300000X0.237500X0.300000X0*%
%ADD19RoundRect,0.237500X0.237500X-0.300000X0.237500X0.300000X-0.237500X0.300000X-0.237500X-0.300000X0*%
%ADD20RoundRect,0.237500X0.300000X0.237500X-0.300000X0.237500X-0.300000X-0.237500X0.300000X-0.237500X0*%
%ADD21RoundRect,0.237500X-0.300000X-0.237500X0.300000X-0.237500X0.300000X0.237500X-0.300000X0.237500X0*%
%ADD22O,3.000000X2.000000*%
%ADD23R,2.000000X3.000000*%
%ADD24O,2.000000X3.000000*%
%ADD25RoundRect,0.150000X-0.587500X-0.150000X0.587500X-0.150000X0.587500X0.150000X-0.587500X0.150000X0*%
%ADD26RoundRect,0.237500X0.237500X-0.250000X0.237500X0.250000X-0.237500X0.250000X-0.237500X-0.250000X0*%
%ADD27RoundRect,0.150000X0.587500X0.150000X-0.587500X0.150000X-0.587500X-0.150000X0.587500X-0.150000X0*%
%ADD28RoundRect,0.250000X0.475000X-0.337500X0.475000X0.337500X-0.475000X0.337500X-0.475000X-0.337500X0*%
%ADD29RoundRect,0.250000X-0.475000X0.337500X-0.475000X-0.337500X0.475000X-0.337500X0.475000X0.337500X0*%
%ADD30R,3.000000X3.000000*%
%ADD31C,3.000000*%
%ADD32RoundRect,0.250000X-0.400000X-1.450000X0.400000X-1.450000X0.400000X1.450000X-0.400000X1.450000X0*%
%ADD33RoundRect,0.250000X-0.625000X0.400000X-0.625000X-0.400000X0.625000X-0.400000X0.625000X0.400000X0*%
%ADD34RoundRect,0.250000X1.000000X0.650000X-1.000000X0.650000X-1.000000X-0.650000X1.000000X-0.650000X0*%
%ADD35RoundRect,0.250000X-0.650000X1.000000X-0.650000X-1.000000X0.650000X-1.000000X0.650000X1.000000X0*%
%ADD36RoundRect,0.250000X-0.337500X-0.475000X0.337500X-0.475000X0.337500X0.475000X-0.337500X0.475000X0*%
%ADD37RoundRect,0.250000X-0.353553X0.000000X0.000000X-0.353553X0.353553X0.000000X0.000000X0.353553X0*%
%ADD38C,2.050000*%
%ADD39C,2.250000*%
%ADD40RoundRect,0.249999X-0.450001X-1.075001X0.450001X-1.075001X0.450001X1.075001X-0.450001X1.075001X0*%
%ADD41RoundRect,0.250000X0.337500X0.475000X-0.337500X0.475000X-0.337500X-0.475000X0.337500X-0.475000X0*%
%ADD42RoundRect,0.250000X-1.000000X-0.650000X1.000000X-0.650000X1.000000X0.650000X-1.000000X0.650000X0*%
%ADD43R,1.500000X2.000000*%
%ADD44R,3.800000X2.000000*%
%ADD45RoundRect,0.250000X-0.412500X-0.650000X0.412500X-0.650000X0.412500X0.650000X-0.412500X0.650000X0*%
%ADD46RoundRect,1.075000X1.075000X2.975000X-1.075000X2.975000X-1.075000X-2.975000X1.075000X-2.975000X0*%
%ADD47RoundRect,0.250000X0.000000X0.353553X-0.353553X0.000000X0.000000X-0.353553X0.353553X0.000000X0*%
%ADD48RoundRect,0.237500X-0.237500X0.250000X-0.237500X-0.250000X0.237500X-0.250000X0.237500X0.250000X0*%
%ADD49RoundRect,0.250000X0.725000X-0.600000X0.725000X0.600000X-0.725000X0.600000X-0.725000X-0.600000X0*%
%ADD50O,1.950000X1.700000*%
%ADD51C,1.440000*%
%ADD52RoundRect,0.249999X0.450001X1.075001X-0.450001X1.075001X-0.450001X-1.075001X0.450001X-1.075001X0*%
%ADD53RoundRect,0.150000X-0.825000X-0.150000X0.825000X-0.150000X0.825000X0.150000X-0.825000X0.150000X0*%
%ADD54C,2.000000*%
G04 APERTURE END LIST*
D10*
X73087500Y-64000000D02*
G75*
G03*
X68912500Y-64000000I-2087500J0D01*
G01*
X68912500Y-64000000D02*
G75*
G03*
X73087500Y-64000000I2087500J0D01*
G01*
D11*
X161630339Y-102000000D02*
G75*
G03*
X160369661Y-102000000I-630339J0D01*
G01*
X160369661Y-102000000D02*
G75*
G03*
X161630339Y-102000000I630339J0D01*
G01*
D12*
X135050000Y-68224600D02*
X137750000Y-68224600D01*
X137750000Y-73900000D01*
X135050000Y-73900000D01*
X135050000Y-68224600D01*
G36*
X135050000Y-68224600D02*
G01*
X137750000Y-68224600D01*
X137750000Y-73900000D01*
X135050000Y-73900000D01*
X135050000Y-68224600D01*
G37*
X159550000Y-87150000D02*
X162450000Y-87150000D01*
X162450000Y-91550000D01*
X159550000Y-91550000D01*
X159550000Y-87150000D01*
G36*
X159550000Y-87150000D02*
G01*
X162450000Y-87150000D01*
X162450000Y-91550000D01*
X159550000Y-91550000D01*
X159550000Y-87150000D01*
G37*
X134900000Y-81300000D02*
X137000000Y-81300000D01*
X137000000Y-136900000D01*
X134900000Y-136900000D01*
X134900000Y-81300000D01*
G36*
X134900000Y-81300000D02*
G01*
X137000000Y-81300000D01*
X137000000Y-136900000D01*
X134900000Y-136900000D01*
X134900000Y-81300000D01*
G37*
D10*
X161087500Y-64000000D02*
G75*
G03*
X156912500Y-64000000I-2087500J0D01*
G01*
X156912500Y-64000000D02*
G75*
G03*
X161087500Y-64000000I2087500J0D01*
G01*
X161087500Y-134000000D02*
G75*
G03*
X156912500Y-134000000I-2087500J0D01*
G01*
X156912500Y-134000000D02*
G75*
G03*
X161087500Y-134000000I2087500J0D01*
G01*
D11*
X161630339Y-77000000D02*
G75*
G03*
X160369661Y-77000000I-630339J0D01*
G01*
X160369661Y-77000000D02*
G75*
G03*
X161630339Y-77000000I630339J0D01*
G01*
D10*
X73087500Y-134000000D02*
G75*
G03*
X68912500Y-134000000I-2087500J0D01*
G01*
X68912500Y-134000000D02*
G75*
G03*
X73087500Y-134000000I2087500J0D01*
G01*
D13*
%TO.C,R10*%
X82471900Y-117585200D03*
X80646900Y-117585200D03*
%TD*%
%TO.C,R8*%
X81989300Y-114427000D03*
X80164300Y-114427000D03*
%TD*%
%TO.C,R7*%
X94892500Y-114376200D03*
X93067500Y-114376200D03*
%TD*%
D14*
%TO.C,R4*%
X87225500Y-114376200D03*
X89050500Y-114376200D03*
%TD*%
D15*
%TO.C,L5*%
X85888800Y-117559800D03*
X84138800Y-117559800D03*
%TD*%
%TO.C,L3*%
X85482400Y-114401600D03*
X83732400Y-114401600D03*
%TD*%
D16*
%TO.C,D7*%
X76479400Y-119803600D03*
X76479400Y-117703600D03*
%TD*%
D17*
%TO.C,D6*%
X76454000Y-112386400D03*
X76454000Y-114486400D03*
%TD*%
D18*
%TO.C,C10*%
X78384400Y-117687900D03*
X78384400Y-119412900D03*
%TD*%
D19*
%TO.C,C7*%
X78435200Y-114476700D03*
X78435200Y-112751700D03*
%TD*%
D20*
%TO.C,C3*%
X94817100Y-112598200D03*
X93092100Y-112598200D03*
%TD*%
D21*
%TO.C,C1*%
X89000500Y-112420400D03*
X87275500Y-112420400D03*
%TD*%
D22*
%TO.C,K1*%
X120250000Y-82622800D03*
X112750000Y-82622800D03*
X120250000Y-77582800D03*
X112750000Y-77582800D03*
X120250000Y-87662800D03*
X112750000Y-87662800D03*
D23*
X112750000Y-62322800D03*
D24*
X120250000Y-62322800D03*
%TD*%
D25*
%TO.C,Q1*%
X99949000Y-61473000D03*
X99949000Y-63373000D03*
X101824000Y-62423000D03*
%TD*%
D26*
%TO.C,R16*%
X94886000Y-125701000D03*
X94886000Y-123876000D03*
%TD*%
D27*
%TO.C,Q4*%
X103589000Y-133467000D03*
X103589000Y-131567000D03*
X101714000Y-132517000D03*
%TD*%
D28*
%TO.C,C21*%
X88282000Y-131387500D03*
X88282000Y-129312500D03*
%TD*%
D21*
%TO.C,C11*%
X118706308Y-128826746D03*
X120431308Y-128826746D03*
%TD*%
D22*
%TO.C,K2*%
X149000000Y-82590000D03*
X141500000Y-82590000D03*
X149000000Y-77550000D03*
X141500000Y-77550000D03*
X149000000Y-87630000D03*
X141500000Y-87630000D03*
D23*
X141500000Y-62290000D03*
D24*
X149000000Y-62290000D03*
%TD*%
D29*
%TO.C,C15*%
X131600000Y-124762500D03*
X131600000Y-126837500D03*
%TD*%
D30*
%TO.C,J1*%
X73152000Y-81026000D03*
D31*
X73152000Y-75946000D03*
%TD*%
D32*
%TO.C,L7*%
X116073808Y-125651746D03*
X120523808Y-125651746D03*
%TD*%
D33*
%TO.C,R11*%
X124521808Y-133070000D03*
X124521808Y-136170000D03*
%TD*%
D19*
%TO.C,C18*%
X94886000Y-121968000D03*
X94886000Y-120243000D03*
%TD*%
D21*
%TO.C,C20*%
X71746000Y-90605000D03*
X73471000Y-90605000D03*
%TD*%
D32*
%TO.C,L4*%
X123775000Y-117199500D03*
X128225000Y-117199500D03*
%TD*%
D14*
%TO.C,R18*%
X93084500Y-131493000D03*
X94909500Y-131493000D03*
%TD*%
D20*
%TO.C,C9*%
X124876308Y-128953746D03*
X123151308Y-128953746D03*
%TD*%
D21*
%TO.C,C24*%
X74537500Y-106200000D03*
X76262500Y-106200000D03*
%TD*%
D14*
%TO.C,R1*%
X95926500Y-61534000D03*
X97751500Y-61534000D03*
%TD*%
D34*
%TO.C,D2*%
X87900000Y-109900000D03*
X83900000Y-109900000D03*
%TD*%
D13*
%TO.C,R19*%
X99262500Y-127525000D03*
X97437500Y-127525000D03*
%TD*%
D19*
%TO.C,C22*%
X90187000Y-131466500D03*
X90187000Y-129741500D03*
%TD*%
D35*
%TO.C,D1*%
X107000000Y-62135000D03*
X107000000Y-66135000D03*
%TD*%
D29*
%TO.C,C4*%
X121319377Y-116133623D03*
X121319377Y-118208623D03*
%TD*%
%TO.C,C6*%
X113750000Y-124762500D03*
X113750000Y-126837500D03*
%TD*%
D36*
%TO.C,C13*%
X118763808Y-130858746D03*
X120838808Y-130858746D03*
%TD*%
D37*
%TO.C,D4*%
X123816117Y-120666117D03*
X125583883Y-122433883D03*
%TD*%
D36*
%TO.C,C19*%
X71825000Y-88700000D03*
X73900000Y-88700000D03*
%TD*%
D38*
%TO.C,J4*%
X130490808Y-132232500D03*
D39*
X133030808Y-129692500D03*
X127950808Y-129692500D03*
X133030808Y-134772500D03*
X127950808Y-134772500D03*
%TD*%
D26*
%TO.C,R20*%
X99585000Y-135326500D03*
X99585000Y-133501500D03*
%TD*%
D29*
%TO.C,C5*%
X119000000Y-116162000D03*
X119000000Y-118237000D03*
%TD*%
D40*
%TO.C,R6*%
X101850000Y-101000000D03*
X106650000Y-101000000D03*
%TD*%
D32*
%TO.C,L6*%
X122825000Y-125650000D03*
X127275000Y-125650000D03*
%TD*%
D14*
%TO.C,R13*%
X125000000Y-61534000D03*
X126825000Y-61534000D03*
%TD*%
D41*
%TO.C,C12*%
X124797308Y-130858746D03*
X122722308Y-130858746D03*
%TD*%
D29*
%TO.C,C8*%
X111650000Y-124762500D03*
X111650000Y-126837500D03*
%TD*%
D42*
%TO.C,D3*%
X94300000Y-110000000D03*
X98300000Y-110000000D03*
%TD*%
D40*
%TO.C,R2*%
X78850000Y-106000000D03*
X83650000Y-106000000D03*
%TD*%
D25*
%TO.C,Q3*%
X93169500Y-127701000D03*
X93169500Y-129601000D03*
X95044500Y-128651000D03*
%TD*%
D43*
%TO.C,U2*%
X76327000Y-92964000D03*
X74027000Y-92964000D03*
D44*
X74027000Y-99264000D03*
D43*
X71727000Y-92964000D03*
%TD*%
D45*
%TO.C,L8*%
X88243500Y-133906000D03*
X91368500Y-133906000D03*
%TD*%
D36*
%TO.C,C23*%
X74400500Y-103000000D03*
X76475500Y-103000000D03*
%TD*%
D25*
%TO.C,Q2*%
X129069000Y-61473000D03*
X129069000Y-63373000D03*
X130944000Y-62423000D03*
%TD*%
D31*
%TO.C,J5*%
X154300000Y-96000000D03*
D46*
X160950000Y-95950000D03*
%TD*%
D47*
%TO.C,D5*%
X116883883Y-120616117D03*
X115116117Y-122383883D03*
%TD*%
D19*
%TO.C,C17*%
X106062000Y-129688500D03*
X106062000Y-127963500D03*
%TD*%
D25*
%TO.C,Q6*%
X101744000Y-135250000D03*
X101744000Y-137150000D03*
X103619000Y-136200000D03*
%TD*%
D40*
%TO.C,R3*%
X78850000Y-101000000D03*
X83650000Y-101000000D03*
%TD*%
D48*
%TO.C,R17*%
X74500000Y-122587500D03*
X74500000Y-124412500D03*
%TD*%
D35*
%TO.C,D8*%
X135500000Y-62135000D03*
X135500000Y-66135000D03*
%TD*%
D18*
%TO.C,C16*%
X105727000Y-135387500D03*
X105727000Y-137112500D03*
%TD*%
D25*
%TO.C,Q5*%
X101744000Y-127818000D03*
X101744000Y-129718000D03*
X103619000Y-128768000D03*
%TD*%
D29*
%TO.C,C14*%
X129500000Y-124777348D03*
X129500000Y-126852348D03*
%TD*%
D49*
%TO.C,J2*%
X70600000Y-121850000D03*
D50*
X70600000Y-119350000D03*
X70600000Y-116850000D03*
X70600000Y-114350000D03*
X70600000Y-111850000D03*
X70600000Y-109350000D03*
X70600000Y-106850000D03*
X70600000Y-104350000D03*
%TD*%
D38*
%TO.C,J3*%
X101727000Y-76200000D03*
D39*
X99187000Y-73660000D03*
X99187000Y-78740000D03*
X104267000Y-73660000D03*
X104267000Y-78740000D03*
%TD*%
D51*
%TO.C,RV1*%
X83075000Y-130096000D03*
X80535000Y-130096000D03*
X77995000Y-130096000D03*
%TD*%
D40*
%TO.C,R5*%
X101850000Y-106000000D03*
X106650000Y-106000000D03*
%TD*%
D38*
%TO.C,R9*%
X112969808Y-132232500D03*
D39*
X110429808Y-129692500D03*
X110429808Y-134772500D03*
X115509808Y-129692500D03*
X115509808Y-134772500D03*
%TD*%
D31*
%TO.C,J6*%
X154300000Y-82550000D03*
D46*
X160950000Y-82500000D03*
%TD*%
D52*
%TO.C,R15*%
X76300000Y-85700000D03*
X71500000Y-85700000D03*
%TD*%
D48*
%TO.C,R14*%
X87731600Y-125833500D03*
X87731600Y-127658500D03*
%TD*%
D33*
%TO.C,R12*%
X119060808Y-132991746D03*
X119060808Y-136091746D03*
%TD*%
D53*
%TO.C,U1*%
X87735500Y-120370600D03*
X87735500Y-121640600D03*
X87735500Y-122910600D03*
X87735500Y-124180600D03*
X92685500Y-124180600D03*
X92685500Y-122910600D03*
X92685500Y-121640600D03*
X92685500Y-120370600D03*
%TD*%
D31*
%TO.C,L2*%
X120250000Y-93250000D03*
X120250000Y-112250000D03*
D54*
X110250000Y-111750000D03*
X110250000Y-93750000D03*
%TD*%
D31*
%TO.C,L1*%
X102250000Y-95500000D03*
X83250000Y-95500000D03*
D54*
X83750000Y-85500000D03*
X101750000Y-85500000D03*
%TD*%
M02*
