%TF.GenerationSoftware,KiCad,Pcbnew,8.0.4-8.0.4-0~ubuntu22.04.1*%
%TF.CreationDate,2024-09-05T19:34:03+02:00*%
%TF.ProjectId,TXRX_relay_board,54585258-5f72-4656-9c61-795f626f6172,rev?*%
%TF.SameCoordinates,Original*%
%TF.FileFunction,Drillmap*%
%TF.FilePolarity,Positive*%
%FSLAX45Y45*%
G04 Gerber Fmt 4.5, Leading zero omitted, Abs format (unit mm)*
G04 Created by KiCad (PCBNEW 8.0.4-8.0.4-0~ubuntu22.04.1) date 2024-09-05 19:34:03*
%MOMM*%
%LPD*%
G01*
G04 APERTURE LIST*
%ADD10C,0.100000*%
%ADD11C,0.120000*%
%ADD12C,0.200000*%
G04 APERTURE END LIST*
D10*
X16500000Y-13400000D02*
G75*
G02*
X15900000Y-14000000I-600000J0D01*
G01*
X6500000Y-6400000D02*
X6500000Y-13400000D01*
X6500000Y-6400000D02*
G75*
G02*
X7100000Y-5800000I600000J0D01*
G01*
X15900000Y-5800000D02*
X7100000Y-5800000D01*
X15900000Y-5800000D02*
G75*
G02*
X16500000Y-6400000I0J-600000D01*
G01*
X16500000Y-13400000D02*
X16500000Y-6400000D01*
X7100000Y-14000000D02*
X15900000Y-14000000D01*
X7100000Y-14000000D02*
G75*
G02*
X6500000Y-13400000I0J600000D01*
G01*
D11*
X10800000Y-10825000D02*
X10800000Y-9725000D01*
X10925000Y-9600000D02*
X13125000Y-9600000D01*
X13125000Y-10950000D02*
X10925000Y-10950000D01*
X13250000Y-9725000D02*
X13250000Y-10825000D01*
X10800000Y-9725000D02*
G75*
G02*
X10925000Y-9600000I125000J0D01*
G01*
X10925000Y-10950000D02*
G75*
G02*
X10800000Y-10825000I0J125000D01*
G01*
X13125000Y-9600000D02*
G75*
G02*
X13250000Y-9725000I0J-125000D01*
G01*
X13250000Y-10825000D02*
G75*
G02*
X13125000Y-10950000I-125000J0D01*
G01*
X8725000Y-8325000D02*
X9825000Y-8325000D01*
X9950000Y-8450000D02*
X9950000Y-10650000D01*
X8600000Y-10650000D02*
X8600000Y-8450000D01*
X9825000Y-10775000D02*
X8725000Y-10775000D01*
X9825000Y-8325000D02*
G75*
G02*
X9950000Y-8450000I0J-125000D01*
G01*
X8600000Y-8450000D02*
G75*
G02*
X8725000Y-8325000I125000J0D01*
G01*
X9950000Y-10650000D02*
G75*
G02*
X9825000Y-10775000I-125000J0D01*
G01*
X8725000Y-10775000D02*
G75*
G02*
X8600000Y-10650000I0J125000D01*
G01*
D12*
X6755777Y-14316484D02*
X6755777Y-14116484D01*
X6755777Y-14116484D02*
X6803396Y-14116484D01*
X6803396Y-14116484D02*
X6831967Y-14126008D01*
X6831967Y-14126008D02*
X6851015Y-14145055D01*
X6851015Y-14145055D02*
X6860539Y-14164103D01*
X6860539Y-14164103D02*
X6870062Y-14202198D01*
X6870062Y-14202198D02*
X6870062Y-14230769D01*
X6870062Y-14230769D02*
X6860539Y-14268865D01*
X6860539Y-14268865D02*
X6851015Y-14287912D01*
X6851015Y-14287912D02*
X6831967Y-14306960D01*
X6831967Y-14306960D02*
X6803396Y-14316484D01*
X6803396Y-14316484D02*
X6755777Y-14316484D01*
X6955777Y-14316484D02*
X6955777Y-14183150D01*
X6955777Y-14221246D02*
X6965301Y-14202198D01*
X6965301Y-14202198D02*
X6974824Y-14192674D01*
X6974824Y-14192674D02*
X6993872Y-14183150D01*
X6993872Y-14183150D02*
X7012920Y-14183150D01*
X7079586Y-14316484D02*
X7079586Y-14183150D01*
X7079586Y-14116484D02*
X7070062Y-14126008D01*
X7070062Y-14126008D02*
X7079586Y-14135531D01*
X7079586Y-14135531D02*
X7089110Y-14126008D01*
X7089110Y-14126008D02*
X7079586Y-14116484D01*
X7079586Y-14116484D02*
X7079586Y-14135531D01*
X7203396Y-14316484D02*
X7184348Y-14306960D01*
X7184348Y-14306960D02*
X7174824Y-14287912D01*
X7174824Y-14287912D02*
X7174824Y-14116484D01*
X7308158Y-14316484D02*
X7289110Y-14306960D01*
X7289110Y-14306960D02*
X7279586Y-14287912D01*
X7279586Y-14287912D02*
X7279586Y-14116484D01*
X7536729Y-14316484D02*
X7536729Y-14116484D01*
X7536729Y-14116484D02*
X7603396Y-14259341D01*
X7603396Y-14259341D02*
X7670062Y-14116484D01*
X7670062Y-14116484D02*
X7670062Y-14316484D01*
X7851015Y-14316484D02*
X7851015Y-14211722D01*
X7851015Y-14211722D02*
X7841491Y-14192674D01*
X7841491Y-14192674D02*
X7822443Y-14183150D01*
X7822443Y-14183150D02*
X7784348Y-14183150D01*
X7784348Y-14183150D02*
X7765301Y-14192674D01*
X7851015Y-14306960D02*
X7831967Y-14316484D01*
X7831967Y-14316484D02*
X7784348Y-14316484D01*
X7784348Y-14316484D02*
X7765301Y-14306960D01*
X7765301Y-14306960D02*
X7755777Y-14287912D01*
X7755777Y-14287912D02*
X7755777Y-14268865D01*
X7755777Y-14268865D02*
X7765301Y-14249817D01*
X7765301Y-14249817D02*
X7784348Y-14240293D01*
X7784348Y-14240293D02*
X7831967Y-14240293D01*
X7831967Y-14240293D02*
X7851015Y-14230769D01*
X7946253Y-14183150D02*
X7946253Y-14383150D01*
X7946253Y-14192674D02*
X7965301Y-14183150D01*
X7965301Y-14183150D02*
X8003396Y-14183150D01*
X8003396Y-14183150D02*
X8022443Y-14192674D01*
X8022443Y-14192674D02*
X8031967Y-14202198D01*
X8031967Y-14202198D02*
X8041491Y-14221246D01*
X8041491Y-14221246D02*
X8041491Y-14278388D01*
X8041491Y-14278388D02*
X8031967Y-14297436D01*
X8031967Y-14297436D02*
X8022443Y-14306960D01*
X8022443Y-14306960D02*
X8003396Y-14316484D01*
X8003396Y-14316484D02*
X7965301Y-14316484D01*
X7965301Y-14316484D02*
X7946253Y-14306960D01*
X8127205Y-14297436D02*
X8136729Y-14306960D01*
X8136729Y-14306960D02*
X8127205Y-14316484D01*
X8127205Y-14316484D02*
X8117682Y-14306960D01*
X8117682Y-14306960D02*
X8127205Y-14297436D01*
X8127205Y-14297436D02*
X8127205Y-14316484D01*
X8127205Y-14192674D02*
X8136729Y-14202198D01*
X8136729Y-14202198D02*
X8127205Y-14211722D01*
X8127205Y-14211722D02*
X8117682Y-14202198D01*
X8117682Y-14202198D02*
X8127205Y-14192674D01*
X8127205Y-14192674D02*
X8127205Y-14211722D01*
M02*
