%TF.GenerationSoftware,KiCad,Pcbnew,8.0.4-8.0.4-0~ubuntu22.04.1*%
%TF.CreationDate,2024-09-05T19:34:21+02:00*%
%TF.ProjectId,TXRX_relay_board,54585258-5f72-4656-9c61-795f626f6172,rev?*%
%TF.SameCoordinates,Original*%
%TF.FileFunction,Profile,NP*%
%FSLAX46Y46*%
G04 Gerber Fmt 4.6, Leading zero omitted, Abs format (unit mm)*
G04 Created by KiCad (PCBNEW 8.0.4-8.0.4-0~ubuntu22.04.1) date 2024-09-05 19:34:21*
%MOMM*%
%LPD*%
G01*
G04 APERTURE LIST*
%TA.AperFunction,Profile*%
%ADD10C,0.100000*%
%TD*%
%TA.AperFunction,Profile*%
%ADD11C,0.120000*%
%TD*%
G04 APERTURE END LIST*
D10*
X165000000Y-134000000D02*
G75*
G02*
X159000000Y-140000000I-6000000J0D01*
G01*
X65000000Y-64000000D02*
X65000000Y-134000000D01*
X65000000Y-64000000D02*
G75*
G02*
X71000000Y-58000000I6000000J0D01*
G01*
X159000000Y-58000000D02*
X71000000Y-58000000D01*
X159000000Y-58000000D02*
G75*
G02*
X165000000Y-64000000I0J-6000000D01*
G01*
X165000000Y-134000000D02*
X165000000Y-64000000D01*
X71000000Y-140000000D02*
X159000000Y-140000000D01*
X71000000Y-140000000D02*
G75*
G02*
X65000000Y-134000000I0J6000000D01*
G01*
D11*
%TO.C,L2*%
X108000000Y-108250000D02*
X108000000Y-97250000D01*
X109250000Y-96000000D02*
X131250000Y-96000000D01*
X131250000Y-109500000D02*
X109250000Y-109500000D01*
X132500000Y-97250000D02*
X132500000Y-108250000D01*
X108000000Y-97250000D02*
G75*
G02*
X109250000Y-96000000I1250002J-2D01*
G01*
X109250000Y-109500000D02*
G75*
G02*
X108000000Y-108250000I2J1250002D01*
G01*
X131250000Y-96000000D02*
G75*
G02*
X132500000Y-97250000I0J-1250000D01*
G01*
X132500000Y-108250000D02*
G75*
G02*
X131250000Y-109500000I-1250000J0D01*
G01*
%TO.C,L1*%
X87250000Y-83250000D02*
X98250000Y-83250000D01*
X99500000Y-84500000D02*
X99500000Y-106500000D01*
X86000000Y-106500000D02*
X86000000Y-84500000D01*
X98250000Y-107750000D02*
X87250000Y-107750000D01*
X98250000Y-83250000D02*
G75*
G02*
X99500000Y-84500000I-2J-1250002D01*
G01*
X86000000Y-84500000D02*
G75*
G02*
X87250000Y-83250000I1250002J-2D01*
G01*
X99500000Y-106500000D02*
G75*
G02*
X98250000Y-107750000I-1250000J0D01*
G01*
X87250000Y-107750000D02*
G75*
G02*
X86000000Y-106500000I0J1250000D01*
G01*
%TD*%
M02*
