%TF.GenerationSoftware,KiCad,Pcbnew,7.0.10*%
%TF.CreationDate,2024-05-11T14:05:22+02:00*%
%TF.ProjectId,TXRX_relay_board,54585258-5f72-4656-9c61-795f626f6172,rev?*%
%TF.SameCoordinates,Original*%
%TF.FileFunction,Soldermask,Bot*%
%TF.FilePolarity,Negative*%
%FSLAX46Y46*%
G04 Gerber Fmt 4.6, Leading zero omitted, Abs format (unit mm)*
G04 Created by KiCad (PCBNEW 7.0.10) date 2024-05-11 14:05:22*
%MOMM*%
%LPD*%
G01*
G04 APERTURE LIST*
G04 Aperture macros list*
%AMRoundRect*
0 Rectangle with rounded corners*
0 $1 Rounding radius*
0 $2 $3 $4 $5 $6 $7 $8 $9 X,Y pos of 4 corners*
0 Add a 4 corners polygon primitive as box body*
4,1,4,$2,$3,$4,$5,$6,$7,$8,$9,$2,$3,0*
0 Add four circle primitives for the rounded corners*
1,1,$1+$1,$2,$3*
1,1,$1+$1,$4,$5*
1,1,$1+$1,$6,$7*
1,1,$1+$1,$8,$9*
0 Add four rect primitives between the rounded corners*
20,1,$1+$1,$2,$3,$4,$5,0*
20,1,$1+$1,$4,$5,$6,$7,0*
20,1,$1+$1,$6,$7,$8,$9,0*
20,1,$1+$1,$8,$9,$2,$3,0*%
G04 Aperture macros list end*
%ADD10C,4.175000*%
%ADD11O,3.000000X2.000000*%
%ADD12R,2.000000X3.000000*%
%ADD13O,2.000000X3.000000*%
%ADD14R,3.000000X3.000000*%
%ADD15C,3.000000*%
%ADD16C,2.050000*%
%ADD17C,2.250000*%
%ADD18RoundRect,0.250000X0.725000X-0.600000X0.725000X0.600000X-0.725000X0.600000X-0.725000X-0.600000X0*%
%ADD19O,1.950000X1.700000*%
%ADD20C,1.440000*%
%ADD21C,2.000000*%
G04 APERTURE END LIST*
D10*
X73087500Y-64000000D02*
G75*
G03*
X68912500Y-64000000I-2087500J0D01*
G01*
X68912500Y-64000000D02*
G75*
G03*
X73087500Y-64000000I2087500J0D01*
G01*
X161087500Y-134000000D02*
G75*
G03*
X156912500Y-134000000I-2087500J0D01*
G01*
X156912500Y-134000000D02*
G75*
G03*
X161087500Y-134000000I2087500J0D01*
G01*
X73087500Y-134000000D02*
G75*
G03*
X68912500Y-134000000I-2087500J0D01*
G01*
X68912500Y-134000000D02*
G75*
G03*
X73087500Y-134000000I2087500J0D01*
G01*
X161087500Y-64000000D02*
G75*
G03*
X156912500Y-64000000I-2087500J0D01*
G01*
X156912500Y-64000000D02*
G75*
G03*
X161087500Y-64000000I2087500J0D01*
G01*
D11*
%TO.C,K1*%
X120250000Y-82622800D03*
X112750000Y-82622800D03*
X120250000Y-77582800D03*
X112750000Y-77582800D03*
X120250000Y-87662800D03*
X112750000Y-87662800D03*
D12*
X112750000Y-62322800D03*
D13*
X120250000Y-62322800D03*
%TD*%
D11*
%TO.C,K2*%
X149000000Y-82590000D03*
X141500000Y-82590000D03*
X149000000Y-77550000D03*
X141500000Y-77550000D03*
X149000000Y-87630000D03*
X141500000Y-87630000D03*
D12*
X141500000Y-62290000D03*
D13*
X149000000Y-62290000D03*
%TD*%
D14*
%TO.C,J1*%
X73152000Y-81026000D03*
D15*
X73152000Y-75946000D03*
%TD*%
D16*
%TO.C,J4*%
X130490808Y-132232500D03*
D17*
X133030808Y-129692500D03*
X127950808Y-129692500D03*
X133030808Y-134772500D03*
X127950808Y-134772500D03*
%TD*%
D15*
%TO.C,J5*%
X154300000Y-96000000D03*
%TD*%
D18*
%TO.C,J2*%
X70600000Y-121850000D03*
D19*
X70600000Y-119350000D03*
X70600000Y-116850000D03*
X70600000Y-114350000D03*
X70600000Y-111850000D03*
X70600000Y-109350000D03*
X70600000Y-106850000D03*
X70600000Y-104350000D03*
%TD*%
D16*
%TO.C,J3*%
X101727000Y-76200000D03*
D17*
X99187000Y-73660000D03*
X99187000Y-78740000D03*
X104267000Y-73660000D03*
X104267000Y-78740000D03*
%TD*%
D20*
%TO.C,RV1*%
X83075000Y-130096000D03*
X80535000Y-130096000D03*
X77995000Y-130096000D03*
%TD*%
D16*
%TO.C,R9*%
X112969808Y-132232500D03*
D17*
X110429808Y-129692500D03*
X110429808Y-134772500D03*
X115509808Y-129692500D03*
X115509808Y-134772500D03*
%TD*%
D15*
%TO.C,J6*%
X154300000Y-82550000D03*
%TD*%
%TO.C,L2*%
X120250000Y-93250000D03*
X120250000Y-112250000D03*
D21*
X110250000Y-111750000D03*
X110250000Y-93750000D03*
%TD*%
D15*
%TO.C,L1*%
X102250000Y-95500000D03*
X83250000Y-95500000D03*
D21*
X83750000Y-85500000D03*
X101750000Y-85500000D03*
%TD*%
M02*
